<svg xmlns="http://www.w3.org/2000/svg" viewBox="0 0 720 560" font-family="sans-serif" font-size="12">
  <defs>
    <marker id="arrow" markerWidth="10" markerHeight="10" refX="9" refY="3" orient="auto">
      <path d="M0,0 L0,6 L9,3 z" fill="#333"/>
    </marker>
    <marker id="arrow2" markerWidth="10" markerHeight="10" refX="9" refY="3" orient="auto">
      <path d="M0,0 L0,6 L9,3 z" fill="#333"/>
    </marker>
  </defs>
  <rect fill="#f0f4ff" stroke="#333" stroke-width="1.5" x="20" y="20" width="680" height="480" rx="4"/>
  <text x="360" y="42" text-anchor="middle" font-weight="bold" font-size="14">WAF Architecture</text>
  <!-- Client -->
  <rect fill="#e3f2fd" stroke="#1976d2" x="280" y="55" width="160" height="36" rx="3"/>
  <text x="360" y="77" text-anchor="middle">Client / Browser</text>
  <path d="M360 91 L360 135 L190 135 L190 152" fill="none" stroke="#333" stroke-width="1.5" marker-end="url(#arrow)"/>
  <!-- WAF Gateway box -->
  <rect fill="#fff8e1" stroke="#f57c00" x="120" y="120" width="480" height="320" rx="4" stroke-width="2"/>
  <text x="360" y="142" text-anchor="middle" font-weight="bold">WAF Gateway</text>
  <rect fill="#fff" stroke="#666" x="140" y="152" width="100" height="28" rx="2"/>
  <text x="190" y="170" text-anchor="middle">Incoming Request</text>
  <rect fill="#fff" stroke="#666" x="140" y="188" width="100" height="28" rx="2"/>
  <text x="190" y="206" text-anchor="middle">Edge Cache</text>
  <rect fill="#fff" stroke="#666" x="140" y="224" width="100" height="28" rx="2"/>
  <text x="190" y="242" text-anchor="middle">Rate Limit</text>
  <rect fill="#fff" stroke="#666" x="140" y="260" width="100" height="28" rx="2"/>
  <text x="190" y="278" text-anchor="middle">DDoS Check</text>
  <rect fill="#fff" stroke="#666" x="140" y="296" width="100" height="28" rx="2"/>
  <text x="190" y="314" text-anchor="middle">IP Blacklist</text>
  <rect fill="#fff" stroke="#666" x="140" y="332" width="100" height="28" rx="2"/>
  <text x="190" y="350" text-anchor="middle">Bot Score</text>
  <rect fill="#ffecb3" stroke="#e65100" x="140" y="368" width="100" height="28" rx="2"/>
  <text x="190" y="386" text-anchor="middle" font-weight="bold">4 ML Models</text>
  <rect fill="#fff" stroke="#666" x="140" y="404" width="100" height="28" rx="2"/>
  <text x="190" y="422" text-anchor="middle">Reverse Proxy</text>
  <line x1="190" y1="166" x2="190" y2="180" stroke="#333" stroke-width="1" marker-end="url(#arrow)"/>
  <line x1="190" y1="202" x2="190" y2="216" stroke="#333" stroke-width="1" marker-end="url(#arrow)"/>
  <line x1="190" y1="238" x2="190" y2="252" stroke="#333" stroke-width="1" marker-end="url(#arrow)"/>
  <line x1="190" y1="274" x2="190" y2="288" stroke="#333" stroke-width="1" marker-end="url(#arrow)"/>
  <line x1="190" y1="310" x2="190" y2="324" stroke="#333" stroke-width="1" marker-end="url(#arrow)"/>
  <line x1="190" y1="346" x2="190" y2="360" stroke="#333" stroke-width="1" marker-end="url(#arrow)"/>
  <line x1="190" y1="382" x2="190" y2="396" stroke="#333" stroke-width="1" marker-end="url(#arrow)"/>
  <line x1="190" y1="418" x2="190" y2="432" stroke="#333" stroke-width="1" marker-end="url(#arrow)"/>
  <!-- Backend -->
  <rect fill="#e8f5e9" stroke="#388e3c" x="520" y="180" width="160" height="80" rx="4"/>
  <text x="600" y="202" text-anchor="middle" font-weight="bold">Backend API</text>
  <text x="600" y="222" text-anchor="middle">FastAPI Routes</text>
  <text x="600" y="242" text-anchor="middle">Database</text>
  <!-- Dashboard -->
  <rect fill="#fce4ec" stroke="#c2185b" x="520" y="280" width="160" height="40" rx="4"/>
  <text x="600" y="305" text-anchor="middle" font-weight="bold">Dashboard (Next.js)</text>
  <!-- Events/Metrics -->
  <path d="M360 340 L500 240" fill="none" stroke="#7b1fa2" stroke-width="1.5" stroke-dasharray="4,2" marker-end="url(#arrow2)"/>
  <text x="420" y="302" text-anchor="middle" fill="#7b1fa2" font-size="10">Events/Metrics</text>
  <!-- Apps -->
  <rect fill="#e0e0e0" stroke="#424242" x="120" y="460" width="120" height="36" rx="3"/>
  <text x="180" y="482" text-anchor="middle">Juice Shop</text>
  <rect fill="#e0e0e0" stroke="#424242" x="300" y="460" width="120" height="36" rx="3"/>
  <text x="360" y="482" text-anchor="middle">WebGoat</text>
  <rect fill="#e0e0e0" stroke="#424242" x="480" y="460" width="120" height="36" rx="3"/>
  <text x="540" y="482" text-anchor="middle">DVWA</text>
  <line x1="190" y1="432" x2="180" y2="460" stroke="#333" stroke-width="1" marker-end="url(#arrow)"/>
  <line x1="190" y1="432" x2="360" y2="460" stroke="#333" stroke-width="1" marker-end="url(#arrow)"/>
  <line x1="190" y1="432" x2="540" y2="460" stroke="#333" stroke-width="1" marker-end="url(#arrow)"/>
</svg>
