<svg xmlns="http://www.w3.org/2000/svg" viewBox="0 0 680 160" font-family="sans-serif" font-size="12">
  <defs>
    <marker id="ar" markerWidth="10" markerHeight="10" refX="9" refY="3" orient="auto">
      <path d="M0,0 L0,6 L9,3 z" fill="#333"/>
    </marker>
  </defs>
  <rect fill="#f5f5f5" stroke="#333" x="10" y="10" width="660" height="140" rx="4"/>
  <text x="340" y="32" text-anchor="middle" font-weight="bold" font-size="14">Request Flow (ML)</text>
  <rect fill="#e3f2fd" stroke="#1976d2" x="30" y="55" width="80" height="36" rx="3"/>
  <text x="70" y="77" text-anchor="middle">Traffic</text>
  <rect fill="#e8f5e9" stroke="#388e3c" x="140" y="55" width="80" height="36" rx="3"/>
  <text x="180" y="77" text-anchor="middle">Features</text>
  <rect fill="#fff3e0" stroke="#e65100" x="250" y="55" width="90" height="36" rx="3"/>
  <text x="295" y="77" text-anchor="middle">4 ML Models</text>
  <rect fill="#f3e5f5" stroke="#7b1fa2" x="370" y="55" width="90" height="36" rx="3"/>
  <text x="415" y="77" text-anchor="middle">Best Model</text>
  <rect fill="#eceff1" stroke="#455a64" x="490" y="55" width="100" height="36" rx="3"/>
  <text x="540" y="77" text-anchor="middle">Benign / Malicious</text>
  <polygon fill="#fff" stroke="#333" points="620,73 660,55 660,91" stroke-width="1.5"/>
  <text x="648" y="80" text-anchor="middle" font-size="9">Malicious?</text>
  <rect fill="#ffcdd2" stroke="#c62828" x="620" y="100" width="70" height="32" rx="3"/>
  <text x="655" y="120" text-anchor="middle">403 Block</text>
  <rect fill="#c8e6c9" stroke="#2e7d32" x="530" y="100" width="70" height="32" rx="3"/>
  <text x="565" y="120" text-anchor="middle">Allow</text>
  <line x1="110" y1="73" x2="140" y2="73" stroke="#333" stroke-width="1.5" marker-end="url(#ar)"/>
  <line x1="220" y1="73" x2="250" y2="73" stroke="#333" stroke-width="1.5" marker-end="url(#ar)"/>
  <line x1="340" y1="73" x2="370" y2="73" stroke="#333" stroke-width="1.5" marker-end="url(#ar)"/>
  <line x1="460" y1="73" x2="490" y2="73" stroke="#333" stroke-width="1.5" marker-end="url(#ar)"/>
  <line x1="590" y1="73" x2="618" y2="73" stroke="#333" stroke-width="1.5" marker-end="url(#ar)"/>
  <line x1="640" y1="91" x2="655" y2="100" stroke="#333" stroke-width="1" marker-end="url(#ar)"/>
  <line x1="640" y1="55" x2="565" y2="100" stroke="#333" stroke-width="1" marker-end="url(#ar)"/>
  <text x="638" y="52" font-size="9" fill="#2e7d32">No</text>
  <text x="655" y="98" font-size="9" fill="#c62828">Yes</text>
</svg>
